<svg xmlns="http://www.w3.org/2000/svg" width="231.584" height="474.074" viewBox="0 0 231.584 474.074">
    <defs>
        <style>
            .cls-1{fill:#022658}
        </style>
    </defs>
    <g id="FIN_GUY" data-name="FIN GUY" transform="translate(-500.612 -7547.887)">
        <g id="GUY_GUY" data-name="GUY GUY" transform="translate(-1887.91 1695.042)">
            <path id="Kontur" d="M211.492 411.281c-4.824-1.083-10.362-5.277-16.458-12.463a161.959 161.959 0 0 1-15.59-22.8 342.432 342.432 0 0 1-16.186-31.7c-.248-.308-6.09-7.568-7.021-9.931a15.3 15.3 0 0 1-.511-1.7l-.006-.021-.009-.037c-.687-2.634-1.724-6.615-7.173-13.271a92.179 92.179 0 0 1-8.7-12.766c-2.183-3.876-3.54-7.049-3.541-8.28 0-.2 0-.414-.006-.588v-.118c-.036-2.631-.111-8.106 2.569-20.258.526-2.381 1.035-4.665 1.757-7.883l.007-.032v-.019c1.9-8.466 3.044-13.576 2.916-15.185a10.764 10.764 0 0 0-.251-1.385l-.008-.035v-.012a10.739 10.739 0 0 1-.355-3.894 5.384 5.384 0 0 1 2.736-3.883 20.5 20.5 0 0 1 4.519-2.13h.007a24.894 24.894 0 0 0 6.868-3.618c6.15-4.3 10.112-9.345 10.367-10.309a3.474 3.474 0 0 0-.23-1.565c-.3-1.058-.637-2.256.23-2.973a3.214 3.214 0 0 1 2.032-.5 16.183 16.183 0 0 1 3.457.5 1.939 1.939 0 0 0 1.119-.878 2.845 2.845 0 0 0 .1-2.254 2.429 2.429 0 0 0-.966-1.3 3.477 3.477 0 0 1-1.015-1.155 18.13 18.13 0 0 1-.905-2.261v-.016c-.44-1.251-.855-2.432-1.39-2.717a2.249 2.249 0 0 0-.925-.335.566.566 0 0 0-.374.154l-.032.024-.016.013a.937.937 0 0 1-.622.192 2.629 2.629 0 0 1-.459-.048c-.817-.152-.88-.534-1-1.227a6.3 6.3 0 0 0-1.108-2.819 4.683 4.683 0 0 0-2.457-1.842 3.228 3.228 0 0 1-2.334-2.419c-.859-2.807-.325-8.272-.068-10.9.027-.275.05-.513.068-.712.185-2.036 1.408-2.406 1.42-2.409v-.01c.053-.675 1.284-16.568 0-19.971-4.7-1.651-10.93-4.74-12.715-6.705-.07-.075-.093-.14-.068-.193.085-.193.77-.209 1.464-.209h.453a2.707 2.707 0 0 0 1.265-.142.077.077 0 0 0 .016-.067 8.391 8.391 0 0 0-.048-.207v-.009l-.015-.065-.014-.059c-.219-.9-.549-2.269.08-3.254a6.154 6.154 0 0 1 2.24-1.849h.005a5 5 0 0 0 2.446-2.333c1.394-3.579 1.089-6.046 0-11.228-.2-.491-.709-.74-1.5-.74-2 0-5.2 1.587-5.233 1.6a2.2 2.2 0 0 0-.87.975 9.482 9.482 0 0 0-.87 4.571c0 1.663.16 3.616.314 5.505v.045c.288 3.5.56 6.8-.318 7.05a3.765 3.765 0 0 0-.607.258 2.886 2.886 0 0 1-1.269.388c-.873 0-2.325-.583-4.85-5.622-3.83-7.644-6.116-20.488-5.557-31.234.184-3.558 1.371-6.131 3.528-7.646a8.945 8.945 0 0 1 5.131-1.494 8.4 8.4 0 0 1 1.244.082v-4.1a7.1 7.1 0 0 0-1.34-2.692l-.005-.008v-.007a25.59 25.59 0 0 1-2.019-3.59 20.14 20.14 0 0 1-1.124-7.932 16.637 16.637 0 0 1 1.339-5.833 14.054 14.054 0 0 1 4.2-5.4c2.371-1.874 6.41-2.824 12.006-2.824 9.379 0 20.071 2.709 20.522 2.824 3.192 1.047 5.244 2.826 6.1 5.286a9.529 9.529 0 0 1 .379 4.235 16.971 16.971 0 0 1-1.014 4 23.144 23.144 0 0 1-2.057 4.151c-.067.057-8.584 7.319-10.336 8.859-.811.713-1.259 3.035-1.2 6.212.055 2.942.537 5.631 1.2 6.692.147.236.3.468.434.684a28.693 28.693 0 0 1 3.884 8.716c1.214 4.187 3.291 16.066 4.289 21.774v.006l.006.036v.011l.032.186v.008c.286 1.636.465 2.654.533 2.981.326 1.565 7.739 2.3 7.814 2.3a9.668 9.668 0 0 1 3.82 4.652 35.148 35.148 0 0 1 1.156 7.5 5.194 5.194 0 0 0 .479 1.623 2.68 2.68 0 0 0 2.465 1.622c1.18 0 1.809-1 2.475-2.051.707-1.118 1.438-2.274 2.885-2.274a3.265 3.265 0 0 1 .758.095c2.4.569 2.819 1.522 3.225 2.443a3.585 3.585 0 0 0 .8 1.279 9.919 9.919 0 0 0 .814.7h.005a8.009 8.009 0 0 1 2 2.443 17.347 17.347 0 0 1 1.547 2.963v.018a8.423 8.423 0 0 0 1.807 2.949c1.457 1.468 4.174 2.182 8.307 2.182 1.1 0 2.339-.053 3.688-.157 4.905-.382 6.057-1.458 7.516-2.822l.008-.007a15.405 15.405 0 0 1 2.011-1.65c3.309-2.222 3.756-3.66 3.929-4.943.087-.635-.356-1.1-.785-1.554-.538-.568-1.046-1.1-.38-1.884a2.653 2.653 0 0 1 2.228-.778c.217 0 .437.005.6.01h.022c.2.006.426.012.659.012a6.772 6.772 0 0 0 1.869-.223 11.916 11.916 0 0 1 3.15-.543 2.967 2.967 0 0 1 1.921.543c.472.388.323.644.052 1.11a4.126 4.126 0 0 0-.622 2.647c.188 2.639 3.28 4.807 3.411 4.9.133.129 3.29 3.159 7.029 3.159a11.584 11.584 0 0 0 6.379-2.118l.027-.016c.594-.353 1.209-.718 1.856-1.025a3.725 3.725 0 0 0 2-2.494 4.626 4.626 0 0 1 1.58-2.4 3.787 3.787 0 0 1 2.343-.565c.494 0 1.013.033 1.515.066H274.48a25.87 25.87 0 0 0 1.636.068 5.261 5.261 0 0 0 3.693-1.141c1.1-1.011.941-1.393.655-2.086-.393-.951-1.052-2.542.853-7.208a26.849 26.849 0 0 0 1.83-11.922 50.586 50.586 0 0 0-1.83-10.234c-.871-3.231.129-5 1.287-7.056a14.9 14.9 0 0 0 2.258-6.524c.148-1.655.359-3.238.563-4.768l.008-.061v-.005c.61-4.557 1.137-8.492-.572-10.822a9.671 9.671 0 0 0-2.329-2.365l-.007-.005a2.422 2.422 0 0 1-1.21-1.961 1.884 1.884 0 0 1 .769-1.992 3.141 3.141 0 0 0 1.151-2.835c-.015-.354-.62-.642-1.321-.975h-.014c-.9-.423-2.011-.949-2.3-1.814a1.751 1.751 0 0 1 .2-1.408.94.94 0 0 1 .825-.419 6.563 6.563 0 0 1 3.087 1.579c.295.223.584.451.852.663a4.937 4.937 0 0 0 1.346.915.068.068 0 0 0 .074-.059 10.906 10.906 0 0 0-3.063-6.966c-.351-.385-.563-.618-.5-.758.049-.116.284-.17.811-.188.1 0 .215-.005.329-.005a7.762 7.762 0 0 1 4.039 1.012c.04 0 1 .162 1 11.966 0 8.836-.234 16.074-.53 25.238v.108c-.113 3.516-.216 6.724-.322 10.391-.409 14.213 0 21.209 0 21.271l.006.017c.3.788 1.417 3.7 3.214 8.067 2.515 6.109 3.577 10.52 3.249 13.486-.357 3.2-2.2 7.827-3.082 10.049v.009l-.164.413c-.736 1.859-1.558 4.567-1.563 4.587.1.031.991.4 1.563 3.469.6 3.215.006 9.572 0 9.635a3.065 3.065 0 0 0-1.317-.323 2.016 2.016 0 0 0-1.9 1.31 5.554 5.554 0 0 0-.308 2.994 3.607 3.607 0 0 1-.576 2.954 2.26 2.26 0 0 1-1.591.93 1.089 1.089 0 0 1-.748-.282 23.421 23.421 0 0 0 0 6.628 31.371 31.371 0 0 0 1.482 4.75c.02-.273.159-1.164 1.04-1.164a4.375 4.375 0 0 1 2.358 1.167 34.305 34.305 0 0 1 6.017 7.179 31.368 31.368 0 0 1 4.4 8.9c.665 2.8 1.967 3.868 3.616 5.225l.007.005.01.008a21.293 21.293 0 0 1 4.39 4.6 5.036 5.036 0 0 0 1.91.932c3.65 1.355 11.244 4.176 12.9 15.861a89.505 89.505 0 0 1 .781 17.762 53.234 53.234 0 0 1-.781 6.772c-.078.167-7.849 16.726-8.258 22.463a150.232 150.232 0 0 1-2.421 15.327v.016c-.078.15-7.839 15-7.928 19.867a102.2 102.2 0 0 1-6.844 21.8 80.334 80.334 0 0 1-8.407 14.584c-5.349 7.3-9.941 10.576-10.134 10.712l.015-.106c.621-4.383 6.056-43.108 5.838-52.948-.12-5.387.971-11.231 1.934-16.387V341.794c.96-5.14 1.789-9.579 1.386-12.812a34.736 34.736 0 0 1-.194-6.025 29.123 29.123 0 0 0-1.332-10.658c-.366-1.269-.726-2.5-1.03-3.527v-.005a112.284 112.284 0 0 1-4.627-21.44c-1.187-10.094-.844-14.706-.841-14.752s-.5-5.949 0-8.564c.351-1.841 2.108-2.116 3.125-2.116a5 5 0 0 1 .774.055v-.019c.032-.686.18-4.283 0-7.694-.189-3.564-.02-8.053 0-8.553v-.005c-.123-.185-1.238-1.808-2.326-1.808-.67 0-1.2.608-1.573 1.808-1.175 3.78-1.167 9.49-1.16 15.012v1.259c0 2.891.036 3.728.053 4.13v.019a14.252 14.252 0 0 1-.053 1.77c-.09 1.669-1.452 3.178-3.03 4.925l-.006.007-.005.006a32.37 32.37 0 0 0-3.018 3.717 59.193 59.193 0 0 0-3.339 5.46 3.035 3.035 0 0 1-1.1.206 2.806 2.806 0 0 1-2.454-1.477 77.87 77.87 0 0 0-.327-.522c-1.1-1.76-1.335-2.126-1.632-5.786a9.409 9.409 0 0 1 .715-4.987 20.657 20.657 0 0 0 .952-3.081c.253-1.138.352-1.892.424-2.442V263.86c.167-1.3.2-1.53 1.679-3.073 1.358-1.412 1.388-1.641 1.426-1.931a1.568 1.568 0 0 1 .314-.76 8.814 8.814 0 0 1 .649-.855l.013-.016c.525-.632.939-1.13.62-1.871a2.528 2.528 0 0 1 .138-1.408c.13-.487.252-.947.1-1.154a.3.3 0 0 0-.24-.115h-.031c-.961 0-4.126 2.544-6.767 4.926a21.584 21.584 0 0 0-4.637 6.409 2.012 2.012 0 0 1 .467 1.822c-.381 1.213-2.136 2.143-5.217 2.764a9.877 9.877 0 0 1-2.017.205 20.293 20.293 0 0 1-2.255-.164h-.038l-.218-.023h-.045l-.056-.006a30.611 30.611 0 0 0-3.437-.2 35.56 35.56 0 0 0-3.628.2c-4.59.47-8.121.783-10.437.783a10.235 10.235 0 0 1-2.424-.211c-1.829-.48-1.976-1.154-2.106-1.749a1.174 1.174 0 0 0-.969-1.082 3.424 3.424 0 0 0-1-.147 7.118 7.118 0 0 0-1.307.158l-.092.017a8.547 8.547 0 0 1-1.617.177 6.928 6.928 0 0 1-1.648-.206c-1.293-.313-1.426-.64-1.595-1.053-.193-.473-.432-1.061-2.486-1.884a15.036 15.036 0 0 0-5.314-.7c-.555 0-1.134.009-1.6.016h-.377a83.46 83.46 0 0 1-1.25.012 10.577 10.577 0 0 1-4.886-.783c-1.265-.722-2.933-2.838-4.576-5.807-1.366-2.469-2.384-4.956-2.368-5.785.033-1.657-.076-2.219-2.934-5.33-2.8-3.047-9.384-5.1-9.662-5.181a.119.119 0 0 1 0 .014v.007a18.949 18.949 0 0 0 .725 4.335c.6 1.857 6.125 10.33 6.18 10.416l6.3 7.331.019.022c.982 1.173 4.437 5.323 7.66 9.5 2.817 3.651 2.839 4.117 2.934 6.075.029.6.064 1.343.193 2.374a56.163 56.163 0 0 1 .457 7.467h-.011a46.591 46.591 0 0 1-21.767-15.761l-.014-.018-.079-.1-.028-.034-.016-.02-.18-.219v-.006l-.658-.8a30.321 30.321 0 0 1-3.8-5.514 25.914 25.914 0 0 1-2.487-7.335A58.342 58.342 0 0 1 179 244.2a8.1 8.1 0 0 0 1.381-1.737 5.937 5.937 0 0 0 .823-4.293 8.115 8.115 0 0 0-3.844-5.008h-.005c-.3-.27-2.978-2.638-4.439-2.638a.74.74 0 0 0-.6.284c-.68.842-.159 3.324-.154 3.349a5.187 5.187 0 0 1 .71 1.879 19.746 19.746 0 0 1 .045 6.819 22.935 22.935 0 0 1-2.363 8.122l-.01.02v.007l-.008.016a34.926 34.926 0 0 0-1.522 3.6c-.512 4.685 10.122 34.358 13.393 43.341l.009.024c.071.192.12.328.121.335.432 2.494.841 11.762.918 13.595v.045l.008.038v.032c.135.642 1.375 6.554 3.3 16.243a41.95 41.95 0 0 0 2.771 9.047V337.341c1.426 3.5 3.38 8.3 6.53 21.5 5.4 22.622 15.009 51.238 15.416 52.445zm30.757-221.359l-1.11 2.714v21.127l2 3.048v2.993l2.823 1.135 1.562-1.135-1.562-5v-4.522h1.562V197.9l-2.186-.508v-.053c.063-.686.619-6.72.619-7.42zm10.032 12.31l-1.075.36-.992 3.546.235 2.909 1.571 1.644h2.135l1.537-1.644-1.537-2.235v-3.426l-1.874-1.154zm8.61-1.714l2.039 4.61 2.822.9v-2.6h4.06v-.982h2.8v-1.922l-4.277-3.283h-3.815v3.283h-3.629zm-90.235-45.63a4.1 4.1 0 0 0-1.751.32c-1.48.706-1.852 2.857-1.856 2.879a54.478 54.478 0 0 1 1.856 5.711 46.771 46.771 0 0 1 1.018 5.675 6.025 6.025 0 0 0 1.716.263 3.668 3.668 0 0 0 1.436-.263 6.476 6.476 0 0 0 2.418-2.366 34.273 34.273 0 0 1-2.415-6.684 12.56 12.56 0 0 1 0-5.21h-.006a10.686 10.686 0 0 0-2.415-.326z" class="cls-1" transform="translate(2286.75 5915.637)"/>
            <path id="Mustache" d="M4.362 24.852a6.105 6.105 0 0 1-3.126-.776 4.1 4.1 0 0 1-1.221-2.758 1.858 1.858 0 0 1 .4-1.568l.206-.182c.516-.456.922-.815 1.368-.815a1.3 1.3 0 0 1 .847.395 1.4 1.4 0 0 1 .364 1.465 1.971 1.971 0 0 0 .144 1.366 1.412 1.412 0 0 0 1.334.618 6.5 6.5 0 0 0 2.407-.618c.2-.091.385-.161.563-.229.961-.368 1.721-.659 4.042-3.724a11.97 11.97 0 0 0 1.944-3.774A12.839 12.839 0 0 1 17.1 8.745c.653-.678 1.208-1.273 1.7-1.8 2.709-2.906 3.527-3.783 8.732-5.631A24.1 24.1 0 0 1 35.607 0a37.513 37.513 0 0 1 5 .376c.326.042.607.079.834.1l.34.035a27.443 27.443 0 0 0 2.955.195A22.259 22.259 0 0 0 47.8.478l.479-.067a29.816 29.816 0 0 1 4.2-.384 10.822 10.822 0 0 1 5.438 1.29c3.853 2.168 3.884 2.251 5.524 6.55.157.41.328.859.518 1.352.545 1.41.9 2.4 1.166 3.119a7.841 7.841 0 0 0 1.982 3.514l.381.458c1.946 2.353 3.418 3.546 4.374 3.546a.959.959 0 0 0 .45-.106.39.39 0 0 0 .231-.267c.051-.275-.268-.639-.605-1.025-.4-.456-.811-.927-.694-1.322a1.38 1.38 0 0 1 1.354-1 1.707 1.707 0 0 1 .735.171c.654.314 2.158 1.22 2.012 2.838-.132 1.458-.382 2.476-2.555 3.3a7.36 7.36 0 0 1-2.537.411 10.013 10.013 0 0 1-4.083-.884 14.871 14.871 0 0 1-3.99-2.831 6.508 6.508 0 0 1-.962-3.563c-.078-1.132-.14-2.026-.8-2.183-.274-.1-.5-.186-.723-.273a8.77 8.77 0 0 0-3.965-.643c-2.042-.015-2.166-.051-5.357-.967-1.318-.379-3.124-.9-5.8-1.626-1.35.207-2.735.285-4.074.361a23.353 23.353 0 0 0-4.429.509 8.02 8.02 0 0 0-1.9 1.014 19.12 19.12 0 0 1-5.256 2.445 28.147 28.147 0 0 1-5.314 1.132 21.146 21.146 0 0 0-4.481.963 3.618 3.618 0 0 0-1.765 1.583 5.83 5.83 0 0 1-1.065 1.254 23.93 23.93 0 0 1-7.439 4.514c-.306.13-.627.267-.969.415a8.872 8.872 0 0 1-3.519.776zM45.211 5.724c2.21 0 6.554.494 6.6.5V4.631H51.8a7.314 7.314 0 0 1-2.436-.879 5.669 5.669 0 0 1-1.631-1.747h-3.5l-2.767-.482.007.007a6.268 6.268 0 0 1 1.368 2.222 5.283 5.283 0 0 1 0 2.47c.027-.052.265-.498 2.37-.498z" class="cls-1" transform="translate(2486.703 6064.384)"/>
            <path id="Tie" d="M27.752 126.946a46.093 46.093 0 0 1-3.517-6.235 54.791 54.791 0 0 1-2.731-6.889 46.805 46.805 0 0 1-1.9-8.6 62.426 62.426 0 0 1-.312-14.622 36.767 36.767 0 0 1 2.536-9.7c2.3-5.717 4.074-9.3 4.092-9.332l-.005-.006c-.4-.51-9.686-12.52-10-14.317-.32-1.834 7.405-25.132 7.484-25.367a24.46 24.46 0 0 1-3.648-1.8 22.771 22.771 0 0 1-3.2-2.287 15.756 15.756 0 0 1-2.9-3.245 11.917 11.917 0 0 1-1.627-4.079 19.488 19.488 0 0 1-.394-4.12 24.06 24.06 0 0 1 .43-4.465L1.884 18.569a1.1 1.1 0 0 1-.692.26A1.261 1.261 0 0 1 .3 18.4a.948.948 0 0 1-.3-.717 2.029 2.029 0 0 1 .659-1.2L26.057 0 54.3 13.93c.041.058 1 1.416.754 2.041-.184.459-1.011.527-1.488.527-.172 0-.287-.009-.288-.009L41.835 9.883a.034.034 0 0 1 0 .011 33.737 33.737 0 0 1 .611 4.2 23.612 23.612 0 0 1-.614 8.316 19.122 19.122 0 0 1-3.376 6.376 16.34 16.34 0 0 1-2.148 2.269c0 .013.251 1.6.861 4.021a62.877 62.877 0 0 0 3.062 9.167 70.959 70.959 0 0 0 4.712 8.844c1.363 2.265 2.439 4.053 2.6 5.229.125.905-1.129 2.344-3.027 4.521A76.1 76.1 0 0 0 39 69.761a47.075 47.075 0 0 0-5.5 10.43c-1.217 3.26-2.183 6.192-2.951 8.964a71.673 71.673 0 0 0-1.687 7.6 100.991 100.991 0 0 0-1.116 14.565c-.247 10.381-.01 15.417 0 15.626zm.032-94.838v17.586a28.636 28.636 0 0 0 2.005-2.316 11.858 11.858 0 0 0 2.376-4.422 21.881 21.881 0 0 0-.585-8.212 3.244 3.244 0 0 0-2.08-2.094 8.076 8.076 0 0 0-1.715-.542z" class="cls-1" transform="translate(2498.669 6199.798)"/>
            <path id="Lip" d="M-5308.82 10205.389s-5.192 8.295-9.333 9.428a23.984 23.984 0 0 1-14.421 0 15.577 15.577 0 0 1-8.783-6.285 3.522 3.522 0 0 1 2.217-3.143 21.345 21.345 0 0 1 8.146-.93c.712.182-5.141 1.2-3.611 2.576s4.267.626 9.4.626 7.216.5 10.244 0c1.535-.255 3.4-1.7 4.936-2.272s1.205 0 1.205 0z" class="cls-1" transform="translate(7854.012 -4125.403)"/>
            <path id="Nose_Eye" d="M4.861 48.5a6.9 6.9 0 0 1-1.943-.217l-.224-.068c-1.234-.379-1.234-.379-1.886-2.134-.06-.162-.126-.338-.2-.531a7.334 7.334 0 0 1 0-5.852 3.468 3.468 0 0 1 2.711-2.55.863.863 0 0 1 .632.239c.7.715.007 2.864 0 2.885s.171.85.878.85a2.541 2.541 0 0 0 1.534-.85c3.285-3.067 5.607-4.621 6.9-4.621a3.585 3.585 0 0 1 2.722 1.736 2.473 2.473 0 0 0 .514.907 2.809 2.809 0 0 0 2.211.907H20.172c2.217 0 4.454-.108 5.8-.89.456-.265.75-.406.926-.491s.233-.112.246-.154-.009-.066-.041-.125a1.94 1.94 0 0 1-.223-.736 10.683 10.683 0 0 0-.28-1.305 32.187 32.187 0 0 1-.944-5.49 99.211 99.211 0 0 1-.62-11.263 1.71 1.71 0 0 0-.406-1.325 1.877 1.877 0 0 0-1.255-.52h-2.127v-.005c-.046-.243-1.106-5.975.422-8.943a13.7 13.7 0 0 1 4.024-4.466A15.184 15.184 0 0 1 31.666.725 33.514 33.514 0 0 1 37.993 0a22.625 22.625 0 0 1 5.6.724c3.887.976 8.094 2.376 8.249 3.352.026.162-.064.309-.267.436a2.393 2.393 0 0 1-1.188.206 31.672 31.672 0 0 1-3.521-.336l-.572-.073a41.5 41.5 0 0 0-5.006-.409 9.127 9.127 0 0 0-3.731.611 8.348 8.348 0 0 0-3.937 3.44 3.677 3.677 0 0 0-.513 3.036h.006a17.883 17.883 0 0 1 4.847-1.024c.072 0 .146-.006.223-.006a14.1 14.1 0 0 1 4.8 1.331c1.5.672 2.774 1.446 2.774 1.689a7.806 7.806 0 0 0-2.157-.517 1.7 1.7 0 0 0-1.119.386c-.144-.016-.306-.024-.462-.033a5.378 5.378 0 0 1-.56-.047 1.233 1.233 0 0 0-.891-.4h-.118a1.053 1.053 0 0 0-1.01 1.112 1.135 1.135 0 0 0 1.941.7 1.055 1.055 0 0 0 .191-.887h.916a5.011 5.011 0 0 1 .315 3.1 3.3 3.3 0 0 1-2.161 2.464 5.541 5.541 0 0 1-1.857.371 4.481 4.481 0 0 1-1.986-.49 3.645 3.645 0 0 1-1.609-1.713 3.539 3.539 0 0 0-1.027-1.286 2.877 2.877 0 0 0-1.582-.563 1.763 1.763 0 0 0-1.3.563 1.058 1.058 0 0 0 0 1.487 3.567 3.567 0 0 0 1.26 1.142 10.731 10.731 0 0 0 1.411.746 7.717 7.717 0 0 1 1.553.873 1.267 1.267 0 0 1 .576.813.484.484 0 0 1-.1.351 6.472 6.472 0 0 1-1.61.222 3.252 3.252 0 0 1-1.268-.222 5.243 5.243 0 0 1-2.013-2.047l-1-2.212c-.011-.011-1.156-1.154-1.949-1.154s-1.271 1.153-1.276 1.164a105.016 105.016 0 0 0 .62 13.924c.5 3.383 1.1 4.039 1.809 4.8a6.851 6.851 0 0 1 1.491 2.314 8.88 8.88 0 0 1-.39 6.812 1.911 1.911 0 0 1-1.19 1.57c-.113.04-.223.081-.331.121a4.324 4.324 0 0 1-1.488.367 2.436 2.436 0 0 1-1.411-.488c-.215-.146-.206-.47-.2-.814a1.169 1.169 0 0 0-.163-.833.6.6 0 0 0-.456-.154 3.176 3.176 0 0 0-1.015.23c-1.257.452-1.237 1.121-1.22 1.712.018.619.034 1.153-1.256 1.37a17.343 17.343 0 0 1-2.743.169c-1.1 0-2.316-.047-3.492-.092s-2.366-.093-3.421-.093c-.371 0-.7.006-1.007.017-.2.006-.37.01-.53.01-1.717 0-1.722-.377-1.734-1.383v-.138a.656.656 0 0 1 .146-.49.8.8 0 0 1 .6-.166c.141 0 .3.01.466.021h.041c.194.012.386.023.59.023a3.541 3.541 0 0 0 1.119-.159 1.279 1.279 0 0 0 .848-.663 1.9 1.9 0 0 0-.263-1.484 9.34 9.34 0 0 1-.056-.116c-.185-.4-1.544-.427-1.956-.427h-.134c-.03.015-3.1 1.614-4.385 2.473-.267.179-.389.375-.364.582.078.647 1.577 1.2 1.592 1.209l.71 1.155a.1.1 0 0 1-.026 0 21.667 21.667 0 0 1-2.805.221z" class="cls-1" data-name="Nose &amp; Eye" transform="translate(2511.606 6012.843)"/>
            <path id="Path_8127" d="M1.769.22C.783-.061 0-.234 0 .737A3.363 3.363 0 0 0 2.226 3.71a6.609 6.609 0 0 0 4.588.363c1.533-.284 2.261-.945 1.545-1.5s-2.878-.026-4.412-.713S2.756.5 1.769.22z" class="cls-1" data-name="Path 8127" transform="rotate(8 -41873.055 20775.837)"/>
            <path id="Path_8128" d="M1.209.244a8.047 8.047 0 0 1 2.981 3.7c.941 1.975 1.231 3.458.784 4.2s-1.178.739-1.788 0-.22-1.924-1.074-3.55S.476 3.23.145 1.994 0-.555 1.209.244z" class="cls-1" data-name="Path 8128" transform="rotate(-9 39544.294 -13236.521)"/>
        </g>
        <g id="right_eye" data-name="right eye" transform="translate(413 248)">
            <path id="контур" d="M-5599.981 9997.73c-2.331 3.238 1.2 1.959 4.054 2.611a25.431 25.431 0 0 0 7.353 0 6.7 6.7 0 0 1 0-2.611 14.8 14.8 0 0 1 3.5-4.555c.587-.49 1.585-.322 2.171-.543 1.7-.639 2.274 1.387 2.274 1.387a4.847 4.847 0 0 0-.77 3.07c.263 1.539 1.151 3.32 4.133 3.252s4-1.706 4.333-2.611a4.174 4.174 0 0 0 .269-1.641v-1.027h-1.112c-.039.644-.3.988-.991 1.027a.928.928 0 0 1-1.025-1.027c.062-.516.325-.719.843-.856a1.266 1.266 0 0 1 1.018.306h1.334s-.613-1.114-1.058-1.879-.527-.75-1.294-1.167a4.629 4.629 0 0 0-2.564-.513c-1.371-.037-7.141 1.973-7.141 1.973s4.2-2.969 5.224-3.944 3.639-1.022 3.639-1.022a6.981 6.981 0 0 1 3.888.438c1.872.857 2.613.877 3.481 2.752a7.906 7.906 0 0 1 .44 4.178s1.936-.9 2.718 0 .409 3.617.409 3.617h2.245s-.493-4.348 0-6.3 1.972-1.5 1.972-1.5a5.043 5.043 0 0 1 3.183 2.83c.8 2.182 0 5.895 0 5.895s2.031-1.743 3.757-1.743a4.841 4.841 0 0 1 3.148 1.743l.851-3.783a11.428 11.428 0 0 0 .684-4.941c-.391-2.066-2.246-3.321-5.269-6.516a12.486 12.486 0 0 0-5.917-3.344 37.6 37.6 0 0 0-9.531-.639 56.823 56.823 0 0 1-9.271.639c-3.3-.247-12.111 7.692-12.111 7.692s-6.537 5.514-8.867 8.752z" class="cls-1" transform="translate(5770.083 -2521.412)"/>
            <path id="Path_8127-2" d="M1.769.22C.783-.061 0-.234 0 .737A3.363 3.363 0 0 0 2.226 3.71a6.609 6.609 0 0 0 4.588.363c1.533-.284 2.261-.945 1.545-1.5s-2.878-.026-4.412-.713S2.756.5 1.769.22z" class="cls-1" data-name="Path 8127" transform="rotate(8 -53370.343 5047.085)"/>
        </g>
        <g id="cylinder" transform="rotate(2 377.245 -10532.15)">
            <path id="Path_8144" d="M1187.1 7648.133s13.219-6.445 63.776-6.71 74.221 7.556 74.221 7.556l4.573-102s-14.984-15.821-78.793-15.776-76.453 21.2-76.453 21.2z" class="cls-1" data-name="Path 8144" transform="translate(-1.557)"/>
            <path id="Path_8145" d="M1189.073 7655.084s12.768-5.43 63.274-5.451 72.967 7.458 72.967 7.458v32.71a374.659 374.659 0 0 1-65.3-15.851c-33.743-11.68-42.203-13.619-70.941-18.866z" class="cls-1" data-name="Path 8145" transform="translate(-2.087 -4.891)"/>
            <path id="Path_8146" d="M1334.893 7673.718v17.3s7.916.5 15.362.5 13.194-.3 14.422-.5c2.712-.445 10.052-1.354 12.173-8.448s-8.363-8.393-12.173-8.851-29.784-.001-29.784-.001z" class="cls-1" data-name="Path 8146" transform="translate(-8.109 -5.877)"/>
            <path id="Path_8147" d="M1172.493 7708.3c-5.877-1.43-30.756-5.716-33.676-26.818s18.27-30.774 51.2-22.712 107.95 31.863 133.328 34.469c20.36 1.606 26.153-.883 23.049.337s-18.377 4.571-35.463 4.542-23.253-1.229-47.484-4.627-32.091-6.463-49.44-8.963-19.957-1.035-19.957-1.035-8.846.262-11.795 4.739a12.136 12.136 0 0 0 0 13.171c2.2 3.1 11.795 5.126 11.795 5.126s-15.68 3.2-21.557 1.771z" class="cls-1" data-name="Path 8147" transform="translate(0 -5.152)"/>
        </g>
    </g>
</svg>
